<svg xmlns="http://www.w3.org/2000/svg" xmlns:xlink="http://www.w3.org/1999/xlink" version="1.1" x="0px" y="0px" viewBox="0 0 100 125" enable-background="new 0 0 100 100" xml:space="preserve"><path d="M51.022,11.602c21.164,0,38.379,17.217,38.379,38.379c0,21.162-17.217,38.378-38.379,38.378  c-8.113,0-15.875-2.51-22.446-7.26c-0.693-0.5-1.515-0.758-2.343-0.758c-0.554,0-1.111,0.115-1.633,0.35l-9.113,4.078l3.85-10.113  c0.457-1.201,0.31-2.549-0.396-3.621c-4.119-6.264-6.296-13.545-6.296-21.054C12.645,28.819,29.861,11.602,51.022,11.602   M51.022,7.602c-23.405,0-42.377,18.975-42.377,42.379c0,8.587,2.562,16.574,6.954,23.251L8.318,92.359l17.916-8.018  c6.971,5.039,15.53,8.018,24.789,8.018c23.404,0,42.379-18.975,42.379-42.378C93.401,26.577,74.427,7.602,51.022,7.602L51.022,7.602  z"/><path d="M50.859,29.3c-6.88,0-12.457,5.577-12.457,12.456c0,10.404,12.412,28.908,12.457,28.906  c0.053-0.002,12.457-18.667,12.457-28.905C63.316,34.876,57.739,29.3,50.859,29.3z M50.924,48.737c-3.868,0-7.001-3.134-7.001-7.001  c0-3.866,3.134-7.002,7.001-7.002c3.866,0,7,3.135,7,7.002S54.79,48.737,50.924,48.737z"/><text x="0" y="115" fill="#000000" font-size="5px" font-weight="bold" font-family="'Helvetica Neue', Helvetica, Arial-Unicode, Arial, Sans-serif">Created by corpus delicti</text><text x="0" y="120" fill="#000000" font-size="5px" font-weight="bold" font-family="'Helvetica Neue', Helvetica, Arial-Unicode, Arial, Sans-serif">from the Noun Project</text></svg>