<svg xmlns="http://www.w3.org/2000/svg" xmlns:xlink="http://www.w3.org/1999/xlink" version="1.1" x="0px" y="0px" viewBox="0 0 100 125" enable-background="new 0 0 100 100" xml:space="preserve"><g><path fill="none" d="M84.09,82.65c2.956,0,5.4-2.464,5.4-5.53V28.51c0-3.066-2.444-5.53-5.4-5.53H30.3   c-0.16,0.026-0.324,0.026-0.484,0H15.9c-0.163,0-0.325,0.008-0.482,0.023c-0.137,0.039-0.278,0.058-0.42,0.057   c-2.516,0.442-4.488,2.705-4.488,5.45v48.61c0,3.069,2.434,5.53,5.39,5.53H84.09z M79.52,26.69c2.606,0,4.72,2.179,4.72,4.79   c0,2.606-2.114,4.78-4.72,4.78c-2.606,0-4.72-2.174-4.72-4.78C74.8,28.869,76.914,26.69,79.52,26.69z M75.7,76.04h5.14   c0.655,0,1.131-0.03,1.383-0.078c0.082-0.016,0.127-0.028,0.158-0.037c0.004-0.085,0.159-0.574,0.159-1.756V63.48   c-0.012-0.828,0.65-1.509,1.477-1.521v0c0.015,0,0.029,0,0.044,0c0.828,0.012,1.49,0.693,1.479,1.521v10.69   c0,1.58,0.005,2.839-0.997,3.863c-0.501,0.512-1.16,0.764-1.766,0.878c-0.606,0.114-1.218,0.129-1.938,0.129H75.7   c-0.014,0-0.028,0-0.042,0c-0.828-0.012-1.49-0.693-1.479-1.521C74.191,76.69,74.872,76.028,75.7,76.04z M50,29.19   c13.03,0,23.62,10.59,23.62,23.62S63.031,76.44,50,76.44c-13.031,0-23.63-10.599-23.63-23.63S36.97,29.19,50,29.19z"/><path fill="none" d="M28.56,19.92c0-1.441-1.122-2.57-2.49-2.57h-7.06c-1.368,0-2.5,1.134-2.5,2.57v0.06h12.05V19.92z"/><path fill="none" d="M79.52,33.26c0.954,0,1.72-0.766,1.72-1.78c0-1.029-0.766-1.79-1.72-1.79c-0.954,0-1.72,0.761-1.72,1.79   C77.8,32.494,78.566,33.26,79.52,33.26z"/><path fill="none" d="M50,73.44c11.409,0,20.62-9.22,20.62-20.63S61.41,32.19,50,32.19c-11.41,0-20.63,9.211-20.63,20.62   S38.591,73.44,50,73.44z M38.12,52.768c0.012-0.828,0.693-1.49,1.521-1.479c0.828,0.012,1.491,0.693,1.479,1.521   c0,5.057,3.964,9.08,8.88,9.08c4.904,0,8.88-4.025,8.88-9.08c0-5.044-3.976-9.07-8.88-9.07c-0.014,0-0.028,0-0.042,0   c-0.828-0.012-1.491-0.693-1.479-1.521c0.012-0.828,0.693-1.49,1.521-1.479c6.555,0,11.88,5.434,11.88,12.07   c0,6.645-5.325,12.08-11.88,12.08c-6.564,0-11.88-5.437-11.88-12.08C38.12,52.796,38.12,52.782,38.12,52.768z"/><path d="M50,76.44c13.031,0,23.62-10.6,23.62-23.63S63.03,29.19,50,29.19c-13.03,0-23.63,10.589-23.63,23.62S36.969,76.44,50,76.44   z M50,32.19c11.41,0,20.62,9.21,20.62,20.62S61.409,73.44,50,73.44c-11.409,0-20.63-9.221-20.63-20.63S38.59,32.19,50,32.19z"/><path d="M50,64.89c6.555,0,11.88-5.435,11.88-12.08c0-6.636-5.325-12.07-11.88-12.07c-0.828-0.012-1.51,0.65-1.521,1.479   c-0.012,0.828,0.65,1.51,1.479,1.521c0.014,0,0.028,0,0.042,0c4.904,0,8.88,4.026,8.88,9.07c0,5.055-3.976,9.08-8.88,9.08   c-4.916,0-8.88-4.023-8.88-9.08c0.012-0.828-0.65-1.51-1.479-1.521c-0.828-0.012-1.509,0.65-1.521,1.479c0,0.014,0,0.028,0,0.042   C38.12,59.453,43.436,64.89,50,64.89z"/><path d="M79.52,36.26c2.606,0,4.72-2.174,4.72-4.78c0-2.611-2.114-4.79-4.72-4.79c-2.606,0-4.72,2.179-4.72,4.79   C74.8,34.086,76.914,36.26,79.52,36.26z M79.52,29.69c0.954,0,1.72,0.761,1.72,1.79c0,1.014-0.766,1.78-1.72,1.78   c-0.954,0-1.72-0.766-1.72-1.78C77.8,30.451,78.566,29.69,79.52,29.69z"/><path d="M84.09,85.65c4.624,0,8.4-3.856,8.4-8.53V28.51c0-4.674-3.776-8.53-8.4-8.53H31.56v-0.06c0-3.039-2.458-5.57-5.49-5.57   h-7.06h0c-3.032,0-5.5,2.526-5.5,5.57v0.418c-3.472,1.056-6,4.338-6,8.172v48.61c0,4.671,3.766,8.53,8.39,8.53H84.09z M16.51,19.92   c0-1.436,1.132-2.57,2.5-2.57h7.06c1.368,0,2.49,1.129,2.49,2.57v0.06H16.51V19.92z M10.51,77.12V28.51   c0-2.745,1.972-5.008,4.488-5.45c0.142,0.001,0.283-0.018,0.42-0.057c0.157-0.015,0.319-0.023,0.482-0.023h13.916   c0.16,0.026,0.324,0.026,0.484,0h53.79c2.956,0,5.4,2.464,5.4,5.53v48.61c0,3.066-2.444,5.53-5.4,5.53H15.9   C12.944,82.65,10.51,80.189,10.51,77.12z"/><path d="M75.658,79.04c0.014,0,0.028,0,0.042,0h5.14c0.72,0,1.332-0.015,1.938-0.129c0.606-0.114,1.265-0.366,1.766-0.878   c1.002-1.024,0.997-2.283,0.997-3.863V63.48c0.012-0.828-0.65-1.51-1.479-1.521c-0.015,0-0.029,0-0.044,0v0   c-0.828,0.012-1.489,0.693-1.477,1.521v10.69c0,1.182-0.155,1.671-0.159,1.756c-0.031,0.009-0.076,0.021-0.158,0.037   c-0.252,0.047-0.728,0.078-1.383,0.078H75.7c-0.828-0.012-1.509,0.65-1.521,1.479C74.167,78.347,74.829,79.028,75.658,79.04z"/></g><text x="0" y="115" fill="#000000" font-size="5px" font-weight="bold" font-family="'Helvetica Neue', Helvetica, Arial-Unicode, Arial, Sans-serif">Created by iconesia</text><text x="0" y="120" fill="#000000" font-size="5px" font-weight="bold" font-family="'Helvetica Neue', Helvetica, Arial-Unicode, Arial, Sans-serif">from the Noun Project</text></svg>