<svg id="Capa_1" enable-background="new 0 0 512 512" height="512" viewBox="0 0 512 512" width="512" xmlns="http://www.w3.org/2000/svg" xmlns:xlink="http://www.w3.org/1999/xlink"><linearGradient id="SVGID_1_" gradientUnits="userSpaceOnUse" x1="256" x2="256" y1="512" y2="0"><stop offset="0" stop-color="#ffc8d1"/><stop offset="1" stop-color="#fff6f7"/></linearGradient><linearGradient id="SVGID_2_" gradientUnits="userSpaceOnUse" x1="256" x2="256" y1="105" y2="407"><stop offset="0" stop-color="#fd3a84"/><stop offset="1" stop-color="#ffa68d"/></linearGradient><g><g><circle cx="256" cy="256" fill="url(#SVGID_1_)" r="256"/></g><g><g><path d="m176.059 229.353c-39.181 0-71.059 31.877-71.059 71.059 0 47.942 62.61 102.165 65.282 104.446 1.657 1.431 3.721 2.143 5.777 2.143s4.12-.711 5.777-2.143c2.672-2.281 65.282-56.503 65.282-104.446 0-39.182-31.878-71.059-71.059-71.059zm0 106.588c-19.595 0-35.529-15.935-35.529-35.53s15.934-35.529 35.529-35.529 35.529 15.935 35.529 35.529c0 19.596-15.934 35.53-35.529 35.53zm0-53.294c-9.793 0-17.765 7.972-17.765 17.765s7.971 17.765 17.765 17.765 17.765-7.971 17.765-17.765c-.001-9.793-7.972-17.765-17.765-17.765zm151-53.294c2.463 0 4.823-1.024 6.506-2.828 17.531-18.841 37.906-56.625 37.906-77.114 0-24.487-19.925-44.412-44.412-44.412s-44.412 19.925-44.412 44.412c0 20.489 20.376 58.273 37.906 77.114 1.683 1.804 4.042 2.828 6.506 2.828zm0-88.821c4.905 0 8.882 3.976 8.882 8.882 0 4.905-3.977 8.882-8.882 8.882s-8.882-3.977-8.882-8.882c0-4.906 3.977-8.882 8.882-8.882zm26.647 79.939c0 4.909 3.973 8.882 8.882 8.882h17.765c4.91 0 8.882-3.973 8.882-8.882 0-4.91-3.973-8.882-8.882-8.882h-17.765c-4.909-.001-8.882 3.972-8.882 8.882zm-64.423 95.927c.92.303 1.856.442 2.776.442 3.73 0 7.208-2.368 8.44-6.107 1.527-4.658-1.006-9.68-5.664-11.215-7.285-2.395-12.187-9.176-12.187-16.739.012-.385.026-.84.043-1.373.295-4.901-3.435-9.099-8.336-9.394-4.805-.364-9.108 3.426-9.394 8.336-.009.173-.078 2.125-.078 2.298-.001 15.389 9.801 28.947 24.4 33.752zm-6.654-33.023c-.007.221-.008.24 0 0zm77.86 35.443c4.973.917 9.492-2.368 10.392-7.061.919-4.823-2.247-9.473-7.061-10.392-3.27-.625-6.662-.954-10.114-.954h-26.647c-4.91 0-8.882 3.973-8.882 8.882 0 4.91 3.973 8.882 8.882 8.882h26.647c2.316.001 4.588.227 6.783.643zm-51.429 70.33s-35.156-.061-35.165-.061c-4.901 0-8.874 3.964-8.882 8.865-.009 4.91 3.964 8.891 8.865 8.9 0 0 35.156.061 35.165.061 4.901 0 8.874-3.964 8.882-8.865.009-4.909-3.964-8.891-8.865-8.9zm64.015-5.664c-5.751 3.756-12.447 5.742-19.352 5.751 0 0-9.524-.018-9.533-.018-4.901 0-8.874 3.964-8.882 8.865-.009 4.91 3.964 8.891 8.865 8.899l9.542.018c10.374-.009 20.428-2.993 29.076-8.631 4.103-2.68 5.265-8.188 2.585-12.3-2.698-4.11-8.198-5.247-12.301-2.584zm24.965-59.366c-2.732-4.094-8.284-5.17-12.317-2.446-4.077 2.724-5.178 8.241-2.446 12.317 3.903 5.838 5.968 12.656 5.959 19.717 0 2.455-.252 4.857-.72 7.182-1.118 5.482 3.066 10.652 8.709 10.652 4.138 0 7.842-2.906 8.692-7.113.711-3.47 1.084-7.052 1.084-10.713.008-10.59-3.089-20.826-8.961-29.596zm-17.687-77h-14.599c-4.91 0-8.882 3.973-8.882 8.882s3.973 8.882 8.882 8.882h14.599c10.565 0 20.141-6.246 24.392-15.909 1.978-4.493-.061-9.732-4.545-11.71-4.537-1.969-9.741.069-11.71 4.545-1.423 3.228-4.615 5.31-8.137 5.31zm-79.941 0c-2.238 0-4.432.208-6.54.599-4.823.902-8.006 5.534-7.113 10.357.923 4.944 5.693 8 10.357 7.113 1.067-.2 2.169-.304 3.296-.304h30.195c4.91 0 8.882-3.973 8.882-8.882s-3.973-8.882-8.882-8.882h-30.195zm-62.159 141.901s-17.773-.035-17.782-.035c-4.901 0-8.874 3.964-8.882 8.865-.009 4.91 3.955 8.891 8.865 8.9 0 0 17.773.035 17.782.035 4.901 0 8.874-3.964 8.882-8.865.008-4.91-3.956-8.892-8.865-8.9z" fill="url(#SVGID_2_)"/></g></g></g></svg>