<svg xmlns="http://www.w3.org/2000/svg" xmlns:xlink="http://www.w3.org/1999/xlink" version="1.1" x="0px" y="0px" viewBox="0 0 1024 1280" style="enable-background:new 0 0 1024 1024;" xml:space="preserve"><g><path d="M512,881.3c-49.9,0-98.2-9.8-143.8-29c-44-18.6-83.5-45.2-117.4-79.1c-33.9-33.9-60.5-73.4-79.1-117.4   c-19.3-45.5-29-93.9-29-143.8s9.8-98.2,29-143.8c18.6-44,45.2-83.5,79.1-117.4s73.4-60.5,117.4-79.1c45.5-19.3,93.9-29,143.8-29   s98.2,9.8,143.8,29c44,18.6,83.5,45.2,117.4,79.1c33.9,33.9,60.5,73.4,79.1,117.4c19.3,45.5,29,93.9,29,143.8s-9.8,98.2-29,143.8   c-18.6,44-45.2,83.5-79.1,117.4c-33.9,33.9-73.4,60.5-117.4,79.1C610.2,871.5,561.9,881.3,512,881.3z M512,162.7   c-192.6,0-349.3,156.7-349.3,349.3S319.4,861.3,512,861.3S861.3,704.6,861.3,512S704.6,162.7,512,162.7z"/><path d="M512,823.3c-83.1,0-161.3-32.4-220.1-91.2c-58.8-58.8-91.2-137-91.2-220.1c0-19.4,1.8-38.6,5.3-57.1l19.6,3.7   c-3.3,17.2-4.9,35.1-4.9,53.3c0,160.6,130.7,291.3,291.3,291.3c160.6,0,291.3-130.7,291.3-291.3c0-160.6-130.7-291.3-291.3-291.3   c-82.9,0-162.1,35.5-217.3,97.4l-14.9-13.3c28.9-32.4,63.6-58,102.9-76c40.7-18.6,84.2-28.1,129.4-28.1   c83.1,0,161.3,32.4,220.1,91.2c58.8,58.8,91.2,137,91.2,220.1s-32.4,161.3-91.2,220.1S595.1,823.3,512,823.3z"/><path d="M240.3,406.6l-18.6-7.3c5.8-15,12.4-28.7,20.1-42l17.3,10C251.9,379.8,245.8,392.6,240.3,406.6z"/><path d="M512,626.1c-62.9,0-114.1-51.2-114.1-114.1S449.1,397.9,512,397.9S626.1,449.1,626.1,512S574.9,626.1,512,626.1z    M512,417.9c-51.9,0-94.1,42.2-94.1,94.1s42.2,94.1,94.1,94.1s94.1-42.2,94.1-94.1S563.9,417.9,512,417.9z"/><rect x="502" y="871.3" width="20" height="58.7"/><rect x="502" y="94" width="20" height="58.7"/><rect x="871.3" y="502" width="58.7" height="20"/><rect x="94" y="502" width="58.7" height="20"/></g><text x="0" y="1039" fill="#000000" font-size="5px" font-weight="bold" font-family="'Helvetica Neue', Helvetica, Arial-Unicode, Arial, Sans-serif">Created by IconPai</text><text x="0" y="1044" fill="#000000" font-size="5px" font-weight="bold" font-family="'Helvetica Neue', Helvetica, Arial-Unicode, Arial, Sans-serif">from the Noun Project</text></svg>