<svg xmlns="http://www.w3.org/2000/svg" xmlns:xlink="http://www.w3.org/1999/xlink" version="1.1" x="0px" y="0px" viewBox="0 0 512 640" style="enable-background:new 0 0 512 512;" xml:space="preserve"><g><path d="M283.4,316L256,363.4L228.6,316c-45.4,3.9-76.9,17.3-76.9,29.4c0,14.4,44.6,30.6,104.3,30.6s104.3-16.2,104.3-30.6   C360.3,333.3,328.9,320,283.4,316z"/><path d="M256,250.2c23.4,0,42.4-19,42.4-42.4c0-23.4-19-42.4-42.4-42.4c-23.4,0-42.4,19-42.4,42.4   C213.6,231.2,232.6,250.2,256,250.2z"/><path d="M256,6C117.9,6,6,117.9,6,256s111.9,250,250,250s250-111.9,250-250S394.1,6,256,6z M256,386c-55.4,0-114.3-14.2-114.3-40.6   c0-21.1,37.9-34.4,81.5-38.9L193,254.2c-9.2-12.8-14.7-28.5-14.7-45.5c0-42.9,34.8-77.7,77.7-77.7s77.7,34.9,77.7,77.7   c0,17-5.5,32.7-14.7,45.5l-30.2,52.3c43.6,4.4,81.5,17.8,81.5,38.9C370.3,371.8,311.4,386,256,386z"/></g><text x="0" y="527" fill="#000000" font-size="5px" font-weight="bold" font-family="'Helvetica Neue', Helvetica, Arial-Unicode, Arial, Sans-serif">Created by SBTS</text><text x="0" y="532" fill="#000000" font-size="5px" font-weight="bold" font-family="'Helvetica Neue', Helvetica, Arial-Unicode, Arial, Sans-serif">from the Noun Project</text></svg>