<svg xmlns="http://www.w3.org/2000/svg" xmlns:xlink="http://www.w3.org/1999/xlink" version="1.1" x="0px" y="0px" viewBox="0 0 65 81.25" enable-background="new 0 0 65 65" xml:space="preserve"><path d="M56.807,30.456V10.291c0-3.653-2.972-6.625-6.625-6.625H7.131c-3.653,0-6.625,2.972-6.625,6.625v35.192  c0,3.653,2.972,6.625,6.625,6.625h25.604c2.772,5.464,8.434,9.226,14.969,9.226c9.258,0,16.79-7.532,16.79-16.79  C64.494,38.642,61.426,33.451,56.807,30.456z M7.131,49.108c-1.999,0-3.625-1.626-3.625-3.625V10.291  c0-1.999,1.626-3.625,3.625-3.625h43.051c1.999,0,3.625,1.626,3.625,3.625v18.628c-1.895-0.743-3.948-1.165-6.103-1.165  c-0.989,0-1.953,0.103-2.896,0.268l-4.89-3.975c-0.007-0.005-0.014-0.008-0.021-0.014c-0.042-0.033-0.087-0.059-0.132-0.087  c-0.041-0.026-0.08-0.054-0.123-0.075c-0.032-0.016-0.066-0.026-0.1-0.04c-0.058-0.024-0.115-0.049-0.175-0.066  c-0.022-0.006-0.046-0.007-0.069-0.013c-0.07-0.016-0.142-0.031-0.213-0.036c-0.028-0.002-0.058,0.001-0.086,0  c-0.066-0.001-0.133-0.003-0.199,0.005c-0.036,0.004-0.071,0.015-0.107,0.021c-0.06,0.011-0.119,0.021-0.177,0.04  c-0.033,0.011-0.065,0.027-0.099,0.041c-0.06,0.023-0.118,0.047-0.175,0.078c-0.006,0.004-0.013,0.005-0.019,0.009l-6.792,3.903  l-8.074-7.523c-0.008-0.008-0.02-0.01-0.028-0.017c-0.136-0.122-0.288-0.213-0.451-0.277c-0.02-0.008-0.039-0.016-0.059-0.023  c-0.163-0.056-0.331-0.082-0.502-0.08c-0.022,0-0.044,0-0.066,0.001c-0.167,0.009-0.332,0.048-0.49,0.114  c-0.023,0.009-0.045,0.018-0.068,0.029c-0.116,0.055-0.228,0.121-0.331,0.208L6.073,33.246c-0.631,0.536-0.708,1.483-0.171,2.114  c0.296,0.349,0.719,0.528,1.143,0.528c0.344,0,0.689-0.117,0.971-0.357l14.275-12.137l11.96,11.146  c-2.086,2.798-3.338,6.254-3.338,10.004c0,1.584,0.235,3.11,0.647,4.564H7.131z M36.25,32.302l-2.521-2.349l5.097-2.928l2.469,2.006  C39.414,29.812,37.715,30.931,36.25,32.302z M47.704,58.334c-7.604,0-13.79-6.187-13.79-13.79s6.187-13.79,13.79-13.79  s13.79,6.187,13.79,13.79S55.308,58.334,47.704,58.334z"/><path d="M11.871,20.932c3.488,0,6.326-2.838,6.326-6.326s-2.838-6.326-6.326-6.326s-6.326,2.838-6.326,6.326  S8.383,20.932,11.871,20.932z M11.871,11.279c1.834,0,3.326,1.492,3.326,3.326s-1.492,3.326-3.326,3.326s-3.326-1.492-3.326-3.326  S10.037,11.279,11.871,11.279z"/><path d="M47.703,33.158c-0.942,0-1.873,0.16-2.77,0.477c-2.381,0.844-4.229,2.691-5.098,5.165c-0.494,1.763-0.551,3.64-0.165,5.426  c0.961,4.501,3.485,8.544,7.107,11.385c0.271,0.213,0.599,0.319,0.926,0.319s0.654-0.106,0.926-0.319  c3.622-2.84,6.146-6.884,7.108-11.383c0.385-1.79,0.327-3.666-0.196-5.521C54.371,35.388,51.221,33.158,47.703,33.158z   M52.805,43.599c-0.731,3.42-2.526,6.527-5.101,8.869c-2.575-2.342-4.369-5.45-5.101-8.872c-0.283-1.314-0.241-2.692,0.092-3.892  c0.536-1.521,1.717-2.702,3.238-3.241c0.573-0.202,1.168-0.305,1.77-0.305c2.248,0,4.262,1.426,4.98,3.452  C53.046,40.903,53.088,42.281,52.805,43.599z"/><path d="M47.704,36.875c-2.39,0-4.333,1.943-4.333,4.332c0,2.39,1.943,4.334,4.333,4.334s4.333-1.944,4.333-4.334  C52.037,38.818,50.094,36.875,47.704,36.875z M47.704,42.541c-0.735,0-1.333-0.599-1.333-1.334c0-0.734,0.598-1.332,1.333-1.332  s1.333,0.598,1.333,1.332C49.037,41.942,48.439,42.541,47.704,42.541z"/><text x="0" y="80" fill="#000000" font-size="5px" font-weight="bold" font-family="'Helvetica Neue', Helvetica, Arial-Unicode, Arial, Sans-serif">Created by Adnen Kadri</text><text x="0" y="85" fill="#000000" font-size="5px" font-weight="bold" font-family="'Helvetica Neue', Helvetica, Arial-Unicode, Arial, Sans-serif">from the Noun Project</text></svg>