<svg xmlns="http://www.w3.org/2000/svg" viewBox="0 0 89.03 72.4" x="0px" y="0px"><title>location-set-1</title><path d="M44.52,9.25A17.73,17.73,0,0,0,29.17,35.84L40.62,55.67a4.5,4.5,0,0,0,7.79,0L59.86,35.84A17.73,17.73,0,0,0,44.52,9.25Zm13,25.24L46.08,54.32a1.85,1.85,0,0,1-3.12,0L31.51,34.49a15,15,0,1,1,26,0Z"/><path d="M44.52,16.16A10.8,10.8,0,1,0,55.31,27,10.81,10.81,0,0,0,44.52,16.16Zm0,18.9A8.1,8.1,0,1,1,52.61,27,8.11,8.11,0,0,1,44.52,35.06Z"/><path d="M20.65,11.57a1.35,1.35,0,1,0-1.92-1.9l-.63.64a20.93,20.93,0,0,0,.67,30,1.35,1.35,0,0,0,1.84-2A18.22,18.22,0,0,1,20,12.2Z"/><path d="M2.7,25.7A30.64,30.64,0,0,1,11.59,3.34l1-1A1.35,1.35,0,1,0,10.7.4l-1,1a33.56,33.56,0,0,0,1.07,48.17,1.35,1.35,0,0,0,1.84-2A30.62,30.62,0,0,1,2.7,25.7Z"/><path d="M70.93,10.31l-.63-.64a1.35,1.35,0,0,0-1.92,1.9l.63.63a18.23,18.23,0,0,1-.58,26.17,1.33,1.33,0,0,0-.07,1.9,1.31,1.31,0,0,0,1,.43,1.34,1.34,0,0,0,.92-.35,20.91,20.91,0,0,0,.67-30Z"/><path d="M79.36,1.45l-1-1a1.35,1.35,0,0,0-1.92,1.9l1,1a30.85,30.85,0,0,1-1,44.3,1.35,1.35,0,1,0,1.83,2A33.53,33.53,0,0,0,79.36,1.45Z"/><text x="0" y="72.92" fill="#000000" font-size="5px" font-weight="bold" font-family="'Helvetica Neue', Helvetica, Arial-Unicode, Arial, Sans-serif">Created by Kelsey Armstrong</text><text x="0" y="77.92" fill="#000000" font-size="5px" font-weight="bold" font-family="'Helvetica Neue', Helvetica, Arial-Unicode, Arial, Sans-serif">from the Noun Project</text></svg>